<svg width="29" height="28" viewBox="0 0 29 28" fill="none" xmlns="http://www.w3.org/2000/svg">
<path d="M28.0642 0H0.0541992V27.7991H28.0642V0Z" fill="#1D1D3F"/>
<path d="M5.25092 0H0V6.74078L5.25092 0Z" fill="#434496"/>
<path d="M22.8135 27.7991H28.0644V21.0583L22.8135 27.7991Z" fill="#434496"/>
<path d="M24.1835 6.34785C24.5385 6.34785 24.8298 6.63308 24.8298 6.99113C24.8298 7.34767 24.5385 7.63138 24.1835 7.63138C23.824 7.63138 23.5342 7.34767 23.5342 6.99113C23.5342 6.63308 23.824 6.34785 24.1835 6.34785ZM24.1835 7.53428C24.4839 7.53428 24.7282 7.29002 24.7282 6.98962C24.7282 6.68922 24.4839 6.44192 24.1835 6.44192C23.8831 6.44192 23.6358 6.68922 23.6358 6.98962C23.6358 7.29002 23.8846 7.53428 24.1835 7.53428ZM24.3792 6.78632C24.3398 6.73322 24.2715 6.71198 24.2124 6.71198C24.0622 6.71198 23.9575 6.82728 23.9575 6.98051C23.9575 7.14285 24.0546 7.25209 24.2063 7.25209C24.2867 7.25209 24.3459 7.22023 24.3853 7.16713L24.49 7.23995C24.4232 7.32188 24.3292 7.36891 24.2048 7.36891C23.9757 7.36891 23.8118 7.21264 23.8118 6.98051C23.8118 6.74535 23.9863 6.59667 24.2108 6.59667C24.3064 6.59667 24.4172 6.63308 24.4763 6.70894L24.3792 6.78632Z" fill="white"/>
<path d="M16.815 19.5092C15.9426 19.2801 15.2341 18.9751 14.6895 18.5928L15.753 16.2048C16.2658 16.5431 16.859 16.8147 17.5357 17.0225C18.2108 17.2289 18.8768 17.3335 19.5307 17.3335C20.7733 17.3335 21.3953 17.0225 21.3953 16.402C21.3953 16.0743 21.2178 15.8331 20.8643 15.6738C20.5093 15.516 19.9404 15.3491 19.156 15.1746C18.2942 14.9895 17.5751 14.7908 16.9971 14.5784C16.419 14.366 15.9229 14.0246 15.5087 13.5558C15.0945 13.087 14.8867 12.4543 14.8867 11.6593C14.8867 10.9614 15.0778 10.3318 15.4587 9.77045C15.8395 9.2091 16.4099 8.76457 17.167 8.43838C17.9241 8.11067 18.8541 7.94833 19.9555 7.94833C20.7081 7.94833 21.4484 8.0333 22.1797 8.2017C22.9095 8.37162 23.5528 8.61892 24.1096 8.94511L23.1128 11.3483C22.0219 10.7596 20.9645 10.4653 19.9404 10.4653C19.2971 10.4653 18.8283 10.5609 18.534 10.7521C18.2396 10.9432 18.0925 11.1905 18.0925 11.4955C18.0925 11.8004 18.2669 12.0295 18.6159 12.1828C18.9648 12.336 19.5262 12.4938 20.2999 12.6576C21.1723 12.8427 21.8945 13.0415 22.4665 13.2539C23.0384 13.4663 23.5346 13.8046 23.9548 14.2673C24.3751 14.7301 24.5844 15.3597 24.5844 16.1562C24.5844 16.8435 24.3933 17.464 24.0125 18.0208C23.6301 18.5776 23.0582 19.0206 22.295 19.3529C21.5319 19.6852 20.6049 19.852 19.5156 19.852C18.5871 19.852 17.6874 19.7383 16.815 19.5092Z" fill="white"/>
<path d="M12.4773 16.0683C11.7991 16.7799 10.9844 17.1698 9.99521 17.1698C8.11544 17.1698 6.80764 15.8605 6.80764 13.9003C6.80764 11.9371 8.11544 10.6293 9.99521 10.6293C10.9844 10.6293 11.7976 11.0192 12.4773 11.7307C12.7428 10.778 13.1797 9.90861 13.7608 9.147C12.7216 8.36869 11.3895 7.94691 9.83287 7.94691C6.20229 7.94691 3.53662 10.4169 3.53662 13.9003C3.53662 17.3822 6.20229 19.8521 9.83287 19.8521C11.3895 19.8521 12.7216 19.4304 13.7608 18.6521C13.1813 17.892 12.7428 17.0226 12.4773 16.0683Z" fill="white"/>
</svg>
