<svg width="50" height="40" viewBox="0 0 50 40" fill="none" xmlns="http://www.w3.org/2000/svg">
<path d="M45.6244 24.286C45.5431 24.286 45.4688 24.2438 45.4274 24.1745L33.883 4.61828C33.6255 4.18392 33.1468 3.9135 32.6336 3.9135H31.4221C30.9088 3.9135 30.4301 4.18392 30.1726 4.61828L23.348 16.1769C23.1786 16.4625 22.8762 16.6332 22.5392 16.6332C22.1988 16.6332 21.8963 16.4608 21.727 16.1718L17.3944 8.72354C17.1386 8.28411 16.6582 8.01031 16.1415 8.01031H14.9438C14.4305 8.01031 13.9518 8.28073 13.6943 8.71509L11.1781 12.9826C11.1608 13.0113 11.1608 13.0485 11.1781 13.0772C11.1954 13.106 11.2282 13.1246 11.2628 13.1246H14.0434C15.3033 13.1246 16.3264 14.1268 16.3264 15.3572V16.3763C16.3264 16.498 16.2244 16.5977 16.1 16.5977H9.09908C9.06452 16.5977 9.03168 16.6163 9.0144 16.6451L7.97057 18.4129C7.95329 18.4416 7.95329 18.4788 7.97057 18.5075C7.98785 18.5363 8.02069 18.5549 8.05525 18.5549H17.1957C18.4555 18.5549 19.4786 19.5571 19.4786 20.7875V21.8049C19.4786 21.9266 19.3766 22.0263 19.2522 22.0263H5.89156C5.857 22.0263 5.82416 22.0449 5.80688 22.0737L4.5695 24.1694C4.52975 24.2387 4.45371 24.2809 4.37248 24.2809H0.404559C0.323334 24.2809 0.249022 24.2387 0.207546 24.1694C0.167797 24.1018 0.167797 24.0156 0.207546 23.948L11.0813 5.53431C11.5652 4.71461 12.4656 4.20589 13.4334 4.20589H17.6657C18.6404 4.20589 19.5443 4.71968 20.0264 5.54783L22.4753 9.75788C22.4925 9.7883 22.5254 9.80521 22.5599 9.80521C22.5945 9.80521 22.6273 9.78661 22.6446 9.75788L27.5596 1.43412C28.0435 0.614422 28.9439 0.107391 29.9117 0.107391H34.1475C35.1152 0.107391 36.0156 0.616113 36.4995 1.43581L49.7928 23.9531C49.8325 24.0207 49.8325 24.1069 49.7928 24.1745C49.753 24.2438 49.677 24.286 49.5957 24.286H45.6244Z" fill="#D7AB03"/>
<path d="M12.7062 28.1581H9.36734L6.80444 32.5L4.24153 28.1581H0.902664H0.0610352V39.6778H2.97995V31.6769L5.68975 36.2672H7.91912L10.6289 31.6769V39.6778H13.5478V28.1581H12.7062Z" fill="white"/>
<path d="M17.4913 31.5063C17.4913 30.9317 17.9942 30.472 19.3872 30.472C20.3152 30.472 21.3106 30.717 22.3251 31.2021L23.6592 28.9424C22.5014 28.2884 20.927 27.9453 19.4027 27.9453C15.9118 27.9453 14.2009 29.6185 14.2009 31.6703C14.2009 35.9378 20.8803 34.6077 20.8803 36.4296C20.8803 36.9873 20.3429 37.3659 18.9672 37.3659C17.7108 37.3659 16.3577 36.9704 15.338 36.3789L14.0073 38.6335C15.1151 39.3856 17.0247 39.8926 18.9517 39.8926C22.4426 39.8926 24.1535 38.1856 24.1535 36.1828C24.1535 31.9491 17.4913 33.2607 17.4913 31.5063Z" fill="white"/>
<path d="M49.0968 28.1581H45.758L43.1951 32.5L40.6322 28.1581H37.2933H36.4517V39.6778H39.3706V31.6769L42.0804 36.2672H44.3097L47.0195 31.6769V39.6778H49.9385V28.1581H49.0968Z" fill="white"/>
<path d="M30.5312 39.6778H33.4933V36.9263H30.5312V39.6778ZM33.4933 34.4943V36.9263H36.4762V34.4943H33.4933ZM28.2811 34.4943L30.5312 31.3372V34.4943H33.4933V28.1581H32.7969H30.5312H29.5496L24.5776 34.9253C24.7038 35.292 24.7746 35.7078 24.7746 36.1827C24.7746 36.4362 24.7505 36.6847 24.7038 36.9263H30.5312V34.4943H28.2811Z" fill="white"/>
</svg>

