<svg width="240" height="71" viewBox="0 0 240 71" fill="none" xmlns="http://www.w3.org/2000/svg">
<g clip-path="url(#clip0)">
<path d="M25.6732 51.6933H7.14923C7.83011 54.7271 10.4235 56.5772 14.1583 56.5772C16.7516 56.5772 18.6241 55.8113 20.3062 54.2298L24.0811 58.298C21.8082 60.8742 18.3938 62.227 13.9781 62.227C5.50711 62.227 0 56.9353 0 49.704C0 42.4229 5.59723 37.181 13.0669 37.181C20.2562 37.181 25.8133 41.9753 25.8133 49.8034C25.8133 50.3406 25.7232 51.1065 25.6732 51.6933ZM7.05912 47.5754H19.1247C18.6241 44.5018 16.3011 42.5125 13.1169 42.5125C9.88277 42.5125 7.55977 44.462 7.05912 47.5754Z" fill="white"/>
<path d="M30.0889 46.3121H42.9755V51.9619H30.0889V46.3121Z" fill="white"/>
<path d="M48.5728 28.3184H55.6719V61.8689H48.5728V28.3184Z" fill="white"/>
<path d="M86.1312 51.6933H67.6072C68.2881 54.7271 70.8815 56.5772 74.6163 56.5772C77.2096 56.5772 79.0821 55.8113 80.7642 54.2298L84.5391 58.298C82.2662 60.8742 78.8518 62.227 74.4361 62.227C65.9651 62.227 60.458 56.9353 60.458 49.704C60.458 42.4229 66.0552 37.181 73.5249 37.181C80.7142 37.181 86.2713 41.9753 86.2713 49.8034C86.2613 50.3406 86.1712 51.1065 86.1312 51.6933ZM67.5071 47.5754H79.5727C79.072 44.5018 76.749 42.5125 73.5649 42.5125C70.3308 42.5125 68.0078 44.462 67.5071 47.5754Z" fill="white"/>
<path d="M111.984 47.9832V61.8689H105.336V58.8351C104.014 61.0532 101.471 62.227 97.8662 62.227C92.1288 62.227 88.7144 59.0639 88.7144 54.8564C88.7144 50.5594 91.7683 47.5754 99.2279 47.5754H104.875C104.875 44.5416 103.053 42.781 99.2279 42.781C96.6346 42.781 93.9511 43.6365 92.1688 45.039L89.6155 40.1054C92.299 38.2055 96.2641 37.1611 100.179 37.1611C107.659 37.181 111.984 40.6126 111.984 47.9832ZM104.885 54.18V51.6933H100.019C96.6947 51.6933 95.6433 52.9168 95.6433 54.5381C95.6433 56.2987 97.1452 57.4824 99.6485 57.4824C102.012 57.4824 104.064 56.3982 104.885 54.18Z" fill="white"/>
<path d="M133.613 37.181V43.6961C133.022 43.6464 132.561 43.6066 132.021 43.6066C128.106 43.6066 125.512 45.7352 125.512 50.3903V61.8689H118.413V37.5391H125.192V40.7519C126.914 38.3945 129.828 37.181 133.613 37.181Z" fill="white"/>
<path d="M162.88 47.9434V61.8689H155.781V49.0276C155.781 45.0986 153.959 43.2883 150.815 43.2883C147.4 43.2883 144.937 45.3672 144.937 49.8432V61.8689H137.838V37.5391H144.617V40.3839C146.529 38.305 149.393 37.1711 152.717 37.1711C158.515 37.181 162.88 40.5231 162.88 47.9434Z" fill="white"/>
<path d="M169.229 37.5391H176.328V61.8689H169.229V37.5391Z" fill="white"/>
<path d="M208.039 47.9434V61.8689H200.94V49.0276C200.94 45.0986 199.117 43.2883 195.973 43.2883C192.559 43.2883 190.096 45.3672 190.096 49.8432V61.8689H182.997V37.5391H189.775V40.3839C191.688 38.305 194.552 37.1711 197.876 37.1711C203.673 37.181 208.039 40.5231 208.039 47.9434Z" fill="white"/>
<path d="M240 37.5391V57.8007C240 66.8423 235.084 71.01 226.252 71.01C221.606 71.01 217.1 69.876 214.237 67.6678L217.06 62.6049C219.153 64.276 222.568 65.3602 225.712 65.3602C230.718 65.3602 232.901 63.1023 232.901 58.7158V57.6813C231.038 59.7204 228.345 60.7151 225.161 60.7151C218.382 60.7151 212.915 56.06 212.915 48.958C212.915 41.856 218.372 37.2009 225.161 37.2009C228.575 37.2009 231.399 38.3348 233.261 40.6823V37.559H240V37.5391ZM232.981 48.9381C232.981 45.3672 230.297 42.97 226.563 42.97C222.828 42.97 220.094 45.3672 220.094 48.9381C220.094 52.509 222.828 54.9061 226.563 54.9061C230.297 54.9061 232.981 52.509 232.981 48.9381Z" fill="white"/>
<path d="M175.707 28.8655H169.849C169.399 28.8655 169.038 29.2236 169.038 29.6513C169.038 30.089 169.409 30.4371 169.849 30.4371H175.707C176.157 30.4371 176.518 30.079 176.518 29.6513C176.528 29.2136 176.157 28.8655 175.707 28.8655Z" fill="white"/>
<path d="M174.696 31.3721H170.881C170.43 31.3721 170.07 31.7302 170.07 32.1579C170.07 32.5955 170.44 32.9437 170.881 32.9437H174.696C175.146 32.9437 175.507 32.5856 175.507 32.1579C175.507 31.7302 175.136 31.3721 174.696 31.3721Z" fill="white"/>
<path d="M172.783 12.3837C169.098 12.3837 166.104 15.3578 166.104 19.0182C166.104 21.117 167.596 22.9472 167.596 22.9472C168.157 23.6335 168.618 24.9266 168.618 25.8218V26.339C168.618 27.2243 169.349 27.9604 170.24 27.9604H175.186C176.077 27.9604 176.808 27.2342 176.808 26.339V25.9213C176.808 25.036 177.279 23.7529 177.86 23.0665C177.86 23.0665 179.452 21.1767 179.452 19.0282C179.462 15.3578 176.468 12.3837 172.783 12.3837ZM176.608 22.3404C176.178 22.8477 175.817 23.8126 175.817 24.4889V24.8072C175.817 25.4737 175.266 26.0207 174.595 26.0207H170.881C170.21 26.0207 169.659 25.4737 169.659 24.8072V24.4193C169.659 23.7529 169.309 22.7781 168.888 22.2609C168.888 22.2609 167.767 20.8882 167.767 19.3067C167.767 16.5514 170.01 14.3233 172.783 14.3233C175.557 14.3233 177.8 16.5514 177.8 19.3067C177.8 20.928 176.608 22.3404 176.608 22.3404Z" fill="white"/>
<path d="M172.873 15.7955V16.8399C174.265 16.9393 175.376 18.0832 175.376 19.4957C175.376 19.6648 175.356 19.8338 175.326 19.993H176.378C176.398 19.8338 176.418 19.6648 176.418 19.4957C176.408 17.5163 174.836 15.8949 172.873 15.7955Z" fill="white"/>
<path d="M180.483 11.1006L185.229 4.22737L185.92 6.38582L191.057 0L185.82 10.7027L184.438 7.65901L180.483 11.1006Z" fill="#D7AB03"/>
<path d="M165.083 11.1006L160.337 4.22737L159.646 6.38582L154.509 0L159.746 10.7027L161.128 7.65901L165.083 11.1006Z" fill="#D7AB03"/>
</g>
<defs>
<clipPath id="clip0">
<rect width="240" height="71" fill="white"/>
</clipPath>
</defs>
</svg>
